HIERARCHY
ROOT Hips
{
  OFFSET 0 0 0
  CHANNELS 6 Xposition Yposition Zposition Zrotation Yrotation Xrotation
  JOINT LeftThigh
  {
    OFFSET 8.409438 0 -5.917753
    CHANNELS 3 Zrotation Yrotation Xrotation
    JOINT LeftLeg
    {
      OFFSET 0 0 -42.358652
      CHANNELS 3 Zrotation Yrotation Xrotation
      JOINT LeftFoot
      {
        OFFSET 0 0 -39.357303
        CHANNELS 3 Zrotation Yrotation Xrotation
      }
    }
  }
  JOINT RightThigh
  {
    OFFSET -8.409438 0 -5.917753
    CHANNELS 3 Zrotation Yrotation Xrotation
    JOINT RightLeg
    {
      OFFSET 0 0 -42.358652
      CHANNELS 3 Zrotation Yrotation Xrotation
      JOINT RightFoot
      {
        OFFSET 0 0 -39.357303
        CHANNELS 3 Zrotation Yrotation Xrotation
      }
    }
  }
  JOINT SpineLow
  {
    OFFSET 0 0 4.719101
    CHANNELS 3 Zrotation Yrotation Xrotation
    JOINT SpineMid
    {
      OFFSET 0 0 12.899191
      CHANNELS 3 Zrotation Yrotation Xrotation
      JOINT Chest
      {
        OFFSET 0 0 12.899191
        CHANNELS 3 Zrotation Yrotation Xrotation
        JOINT LeftShoulder
        {
          OFFSET 7.550562 1.41573 9.438202
          CHANNELS 3 Zrotation Yrotation Xrotation
          JOINT LeftArm
          {
            OFFSET 9.155056 0 4.247191
            CHANNELS 3 Zrotation Yrotation Xrotation
            JOINT LeftForearm
            {
              OFFSET 0 0 25.771955
              CHANNELS 3 Zrotation Yrotation Xrotation
              JOINT LeftHand
              {
                OFFSET 0 0 25.197169
                CHANNELS 3 Zrotation Yrotation Xrotation
              }
            }
          }
        }
        JOINT RightShoulder
        {
          OFFSET -7.550562 1.41573 9.438202
          CHANNELS 3 Zrotation Yrotation Xrotation
          JOINT RightArm
          {
            OFFSET -9.155056 0 4.247191
            CHANNELS 3 Zrotation Yrotation Xrotation
            JOINT RightForearm
            {
              OFFSET 0 0 -25.771955
              CHANNELS 3 Zrotation Yrotation Xrotation
              JOINT RightHand
              {
                OFFSET 0 0 -25.197169
                CHANNELS 3 Zrotation Yrotation Xrotation
              }
            }
          }
        }
        JOINT Neck
        {
          OFFSET 0 0 15.101124
          CHANNELS 3 Zrotation Yrotation Xrotation
          JOINT Head
          {
            OFFSET 0 0 11.325843
            CHANNELS 3 Zrotation Yrotation Xrotation
            End Site
            {
              OFFSET 0 0 14.157303
            }
          }
        }
      }
    }
  }
}
MOTION
Frames: 5
Frame Time: 0.0
0.0  89.887642  0.0  15.766723  -21.321414  -129.562691  7.489168  -31.93724  -42.648823  47.188761  56.226822  114.05133  16.728542  -2.679369  0.926254  -15.304417  9.869522  8.269578  21.755514  8.668817  32.281659  8.759046  3.998538  3.534332  -2.797504  1.864048  3.913406  -7.337612  5.524607  10.48692  -7.337612  5.524607  10.486919  -13.182226  23.296264  4.524957  -112.820571  60.348826  -62.330637  -36.941447  -21.48455  65.370169  73.335923  9.678909  -12.077788  11.63823  -0.218542  20.008156  130.436656  26.150943  69.615365  -22.979009  8.537582  -98.226293  76.203665  14.111209  -22.665009  14.707883  3.372772  7.608779  10.987757  2.715044  5.627549  
0.0  89.887642  0.0  16.836146  -20.638959  -130.762479  7.244984  -34.38379  -46.238861  35.99755  54.421381  101.184737  16.302881  -3.38805  1.634933  -17.482468  11.39381  8.109813  22.982873  9.410293  32.520383  9.132273  4.245273  3.227536  -2.711203  2.12136  4.017542  -7.053738  6.222342  10.756565  -7.053738  6.222342  10.756565  -13.051918  23.927694  4.806666  -111.286148  59.795743  -60.420701  -37.09251  -21.152846  64.841763  73.053075  10.122612  -10.925826  12.040644  -0.694994  20.634956  131.685145  26.423653  70.277512  -24.961184  9.805469  -98.819548  75.133112  14.608416  -21.532137  14.346763  3.253388  7.594583  10.718719  2.62051  5.621635  
0.0  89.887642  0.0  17.839366  -20.198103  -131.607261  7.62877  -36.816986  -49.793946  24.657779  51.585888  87.744884  14.764291  -4.52813  2.259509  -18.146562  12.513477  8.024254  23.083862  10.044322  32.630095  9.43896  4.473915  3.018422  -2.640305  2.373896  4.044362  -6.819055  6.901124  10.815992  -6.819055  6.901124  10.815991  -12.718156  24.220043  4.862334  -110.42907  59.56225  -59.557414  -37.138939  -21.017368  64.411419  72.676211  10.659476  -9.660801  12.685973  -1.276782  21.522979  132.829966  26.890113  70.958182  -26.403015  10.499516  -99.224337  74.691347  15.673657  -20.664064  14.183873  3.037036  7.643306  10.599405  2.457193  5.664214  
0.0  89.887642  0.0  18.821837  -20.154012  -132.07773  8.945881  -38.470323  -53.068176  11.789389  48.069349  72.941812  13.807272  -5.943663  3.105489  -17.774769  12.958754  7.784975  22.787488  10.569132  32.810835  9.506074  4.66793  2.874065  -2.448659  2.621141  3.948428  -6.268838  7.534864  10.555733  -6.268837  7.534863  10.555732  -12.349557  24.424161  6.127738  -109.381875  59.02126  -58.451928  -36.973014  -21.069634  64.080557  72.259168  11.227294  -8.587651  12.918161  -2.366661  22.870196  133.744692  27.234396  71.516458  -27.654495  11.172848  -99.34217  74.072345  17.387539  -19.66231  13.874482  2.55509  7.951185  10.372993  2.098551  5.907978  
0.0  89.887642  0.0  19.484146  -20.290652  -132.057248  9.50646  -38.333758  -54.250007  -3.00036  40.9678  56.622569  12.854809  -7.367673  3.907432  -16.720028  12.692744  7.521399  22.334098  10.880956  32.990158  9.374496  4.842498  2.850804  -2.226327  2.751311  3.797529  -5.659569  7.842347  10.159759  -5.659569  7.842348  10.159759  -12.300748  24.888424  7.447316  -108.523146  58.638409  -57.617321  -36.784491  -21.267007  63.950903  71.98222  11.766369  -7.608769  12.68892  -3.26871  24.290522  134.43174  27.282615  71.899733  -28.799848  12.465498  -99.408091  72.826097  18.503902  -19.506343  13.417998  2.219986  8.384355  10.034042  1.850573  6.242296  
